<svg xmlns="http://www.w3.org/2000/svg" viewBox="0 0 179.63 74.2">
    <defs>
        <style>
            .cls-1,.cls-3 {
                fill: none;
                stroke-miterlimit: 10;
            }
            .cls-1 {
                stroke: #000;
            }
            .cls-2 {
                fill: #c1272d;
            }
            .cls-3 {
                stroke: #c1272d;
                stroke-width: 1.3px;
            }
            .cls-4 {
                fill: #ccc;
            }
            .cls-5 {
                fill: #fcfcfc;
            }
        </style>
    </defs>
    <title>Asset 7</title>
    <g id="Layer_2" data-name="Layer 2">
        <g id="Layer_1-2" data-name="Layer 1">
            <path
                class="cls-1"
                d="M64.62,57.83"
                transform="translate(-5.43)"
            />
            <path
                class="cls-1"
                d="M118.39,57.58"
                transform="translate(-5.43)"
            />
            <!-- V -->
            <path
                class="cls-2"
                d="M5.43,15.75H7L16.92,72h.16l33.2-56.2h1.78L17.9,73.57H15.63Z"
                transform="translate(-5.43)"
            />
            <!-- Heart Beat -->
            <polyline
                class="cls-3"
                points="45.55 16.41 93.13 16.41 94.28 13.67 97.3 21.53 101.63 3.28 105.63 27.28 109.78 9.55 113.26 20.62 115.13 16.41 179.63 16.41"
            />
            <path
                class="cls-4"
                d="M39.6,73.57,45.88,44h1.27L40.81,73.57Zm9.84-41.1-1.32,6H46.85l1.32-6Z"
                transform="translate(-5.43)"
                />
            <path
                class="cls-4"
                d="M58.42,34.66l-2,9.32h6.45l-.23,1.15H56.24l-4.6,21.58q-.17.81-.35,1.67a13.24,13.24,0,0,0-.23,1.73,2.65,2.65,0,0,0,.37,1.55,1.94,1.94,0,0,0,.95.72,4.41,4.41,0,0,0,1.3.23l1.35,0a12.73,12.73,0,0,0,2.76-.23l-.23,1.15L56,73.69q-.78.06-1.58.06a11.87,11.87,0,0,1-1.67-.12,4.22,4.22,0,0,1-1.44-.46,2.54,2.54,0,0,1-1-1,3.42,3.42,0,0,1-.37-1.7,8.35,8.35,0,0,1,.17-1.7q.17-.83.29-1.7L55,45.14H49.44L49.67,44h5.58l2-9.32Z"
                transform="translate(-5.43)"
                />
            <path
                class="cls-4"
                d="M69.79,45.48a13.9,13.9,0,0,1,7.8-2.19A11.09,11.09,0,0,1,84.18,45q2.45,1.76,2.45,5.61a11.67,11.67,0,0,1-.14,1.9q-.14.86-.32,1.73l-3.4,14.45q-.12.52-.17.95a8.13,8.13,0,0,0-.06,1.06q0,1.21.55,1.55a2.27,2.27,0,0,0,1.24.35,7.07,7.07,0,0,0,2-.23v1.15a10.6,10.6,0,0,1-2,.17,2.65,2.65,0,0,1-3-3,6.44,6.44,0,0,1,.2-1.81q.2-.66.37-1.41h-.12a13.73,13.73,0,0,1-4.92,5.07,14.41,14.41,0,0,1-7.17,1.61,13.42,13.42,0,0,1-3.31-.4,8.24,8.24,0,0,1-2.79-1.27,6.26,6.26,0,0,1-1.93-2.24A7.15,7.15,0,0,1,61,67a9.57,9.57,0,0,1,1.09-4.86A7.89,7.89,0,0,1,65,59.18a11.85,11.85,0,0,1,4.09-1.41,29.73,29.73,0,0,1,4.78-.37l2.22-.09,2.1,0A15,15,0,0,0,81,57a5.67,5.67,0,0,0,2.33-1,4.84,4.84,0,0,0,1.55-2,8.53,8.53,0,0,0,.55-3.34,6.62,6.62,0,0,0-.6-3,5.1,5.1,0,0,0-1.64-1.9,6.54,6.54,0,0,0-2.48-1,16.17,16.17,0,0,0-3.17-.29,11.09,11.09,0,0,0-7.22,2.1,10.75,10.75,0,0,0-3.71,6H65.5Q66.65,47.61,69.79,45.48ZM84.21,56.76a3.75,3.75,0,0,1-1.78,1,17,17,0,0,1-2.68.52q-1.47.17-3,.2l-2.82,0q-2.13.12-4.23.43a12.06,12.06,0,0,0-3.77,1.18,7.12,7.12,0,0,0-2.73,2.5A7.87,7.87,0,0,0,62.11,67a5.87,5.87,0,0,0,.6,2.76,5.28,5.28,0,0,0,1.67,1.9,7.72,7.72,0,0,0,2.45,1.12,11.16,11.16,0,0,0,2.94.37,13.8,13.8,0,0,0,5-.83A12.57,12.57,0,0,0,78.57,70a12.89,12.89,0,0,0,2.79-3.51A19.48,19.48,0,0,0,83.12,62l1.21-5.12Z"
                transform="translate(-5.43)"
            />
            <path
                class="cls-4"
                d="M97.22,32.47h1.27l-8.63,41.1H88.64Z"
                transform="translate(-5.43)"
            />
            <path
                class="cls-5"
                d="M115.23,62.06q-.06.86-.06,1.73a8.83,8.83,0,0,0,.89,4.06,8.41,8.41,0,0,0,2.39,2.91A10.75,10.75,0,0,0,122,72.51a14.75,14.75,0,0,0,4.26.6,17.84,17.84,0,0,0,5-.69,13,13,0,0,0,4.23-2.07,10.07,10.07,0,0,0,2.94-3.51,10.83,10.83,0,0,0,1.09-5,7.48,7.48,0,0,0-1.15-4.29,8.11,8.11,0,0,0-2.94-2.65,12.09,12.09,0,0,0-4-1.27,22.71,22.71,0,0,0-4.4-.2l.29-1.09q2.36,0,5-.23A17.22,17.22,0,0,0,137.22,51,9,9,0,0,0,141,48.24a7.81,7.81,0,0,0,1.5-5.06,8,8,0,0,0-.83-3.77,7.34,7.34,0,0,0-2.24-2.59,9.55,9.55,0,0,0-3.22-1.47,15.52,15.52,0,0,0-3.83-.46q-5.35,0-8.37,2.85a13.66,13.66,0,0,0-3.89,7.91h-1.15a14.31,14.31,0,0,1,4.23-8.72q3.42-3.19,9.18-3.19a16.53,16.53,0,0,1,4.29.55,10.3,10.3,0,0,1,3.6,1.73,8.65,8.65,0,0,1,2.48,3,9.05,9.05,0,0,1,.92,4.2,9.93,9.93,0,0,1-.81,4.17,8.55,8.55,0,0,1-2.22,3,9.78,9.78,0,0,1-3.31,1.84,17.22,17.22,0,0,1-4.14.81v.11a7.94,7.94,0,0,1,3.08.92,7.76,7.76,0,0,1,2.3,1.93,9.3,9.3,0,0,1,1.5,2.71,10.49,10.49,0,0,1,.6,3.19,11.82,11.82,0,0,1-1.15,5.35A11.33,11.33,0,0,1,136.36,71a13.79,13.79,0,0,1-4.58,2.36,18.79,18.79,0,0,1-5.55.81,16.61,16.61,0,0,1-4.72-.66,11.38,11.38,0,0,1-3.89-2A9.48,9.48,0,0,1,115,68.33a10,10,0,0,1-1-4.55q0-1,.06-1.81t.17-1.64h1.21A13.25,13.25,0,0,0,115.23,62.06Z"
                transform="translate(-5.43)"
            />
            <path
                class="cls-5"
                d="M154.52,73.6a14.23,14.23,0,0,1-4.58-1.87,9.58,9.58,0,0,1-3.11-3.22,9.14,9.14,0,0,1-1.15-4.72,11.2,11.2,0,0,1,1-4.83,10.48,10.48,0,0,1,2.65-3.51,11.82,11.82,0,0,1,3.94-2.22,18.85,18.85,0,0,1,4.86-.95v-.12A9,9,0,0,1,153,49.4a8,8,0,0,1-1.93-5.58,9.85,9.85,0,0,1,1-4.66A8.61,8.61,0,0,1,154.86,36a12,12,0,0,1,4.06-1.76,21.13,21.13,0,0,1,4.89-.55,20.31,20.31,0,0,1,4.43.49,11.62,11.62,0,0,1,3.86,1.58,8.76,8.76,0,0,1,2.71,2.79,7.76,7.76,0,0,1,1,4.12,8.7,8.7,0,0,1-1.38,5.12,11,11,0,0,1-3.19,3.08,11.73,11.73,0,0,1-3.63,1.53,13.8,13.8,0,0,1-2.62.4V53a10.51,10.51,0,0,1,6.25,3.22,9.62,9.62,0,0,1,2.27,6.68,10.76,10.76,0,0,1-1.21,5.32,10.46,10.46,0,0,1-3.14,3.51,12.57,12.57,0,0,1-4.32,1.93,20.47,20.47,0,0,1-4.81.58A24.64,24.64,0,0,1,154.52,73.6Zm16.75-15.31a9.25,9.25,0,0,0-2.88-3,11.84,11.84,0,0,0-4-1.64,20.41,20.41,0,0,0-4.4-.49,18.58,18.58,0,0,0-4.83.63,13.52,13.52,0,0,0-4.23,1.93,9.39,9.39,0,0,0-4.12,8.09A8.38,8.38,0,0,0,150.95,71a12.77,12.77,0,0,0,4.2,1.61,25,25,0,0,0,5,.49,16.33,16.33,0,0,0,5-.72,11.22,11.22,0,0,0,3.83-2,9.32,9.32,0,0,0,2.48-3.22,9.9,9.9,0,0,0,.89-4.26A8.74,8.74,0,0,0,171.27,58.29ZM173.71,39a7.3,7.3,0,0,0-2.56-2.39,12.21,12.21,0,0,0-3.51-1.29,18.72,18.72,0,0,0-3.83-.4,20.81,20.81,0,0,0-4.46.46,10.6,10.6,0,0,0-3.68,1.53,7.7,7.7,0,0,0-2.5,2.76,8.66,8.66,0,0,0-.92,4.17,7,7,0,0,0,.95,3.74,7.9,7.9,0,0,0,2.45,2.53,10.74,10.74,0,0,0,3.42,1.44,16.4,16.4,0,0,0,3.83.46,16.93,16.93,0,0,0,4.29-.55,11.81,11.81,0,0,0,3.77-1.7,9.11,9.11,0,0,0,2.71-2.91,7.94,7.94,0,0,0,1-4.12A6.7,6.7,0,0,0,173.71,39Z"
                transform="translate(-5.43)"
            />
        </g>
    </g>
</svg>
